<?xml version="1.0" encoding="utf-8"?>
<!-- Generator: Adobe Illustrator 19.1.0, SVG Export Plug-In . SVG Version: 6.00 Build 0)  -->
<svg version="1.1" id="Layer_1" xmlns="http://www.w3.org/2000/svg" xmlns:xlink="http://www.w3.org/1999/xlink" x="0px" y="0px"
	 viewBox="0 0 50 50" style="enable-background:new 0 0 50 50;" xml:space="preserve">
<style type="text/css">
	.st0{fill:#858786;}
	.st1{fill:#FEFEFE;}
</style>
<g>
	<path class="st0" d="M50,25c0,14-11.1,25.1-25.2,25C10.6,49.9-0.1,38.2,0,24.8C0.1,11,11.3,0,25.4,0C38.9,0,50,11.3,50,25z"/>
	<path class="st1" d="M21.5,31.1c0-1.9,0-3.8,0-5.7c0-0.7-0.2-0.9-0.9-0.9c-1.8,0-1.8,0-1.8-1.9c0,0,0-0.1,0-0.1
		c0-1.9,0-1.9,1.8-1.9c0.7,0,0.9-0.3,0.9-0.9c0-0.9,0-1.9,0-2.8c0.1-2.7,1.7-4.4,4.4-4.6c1.5-0.1,3,0.1,4.5,0.3
		c0.6,0.1,0.9,0.3,0.6,0.9C31,13.7,31,13.9,31,14.2c-0.1,0.8-0.1,1.7-0.5,2.2c-0.5,0.6-1.3-0.1-2,0c-1.5,0.1-1.9,0.5-1.9,1.9
		c0,2.3,0,2.3,2.4,2.3c1.8,0,1.8,0,1.7,1.7c-0.1,2.2-0.1,2.2-2.3,2.2c-2.1,0-1.8-0.3-1.8,1.8c0,3.5,0,6.9,0,10.4
		c0,0.9-0.3,1.2-1.1,1.1c-0.9-0.1-1.9-0.1-2.8,0c-0.8,0.1-1.1-0.2-1.1-1C21.5,34.9,21.5,33,21.5,31.1z"/>
</g>
</svg>
