<?xml version="1.0" encoding="utf-8"?>
<!-- Generator: Adobe Illustrator 19.1.0, SVG Export Plug-In . SVG Version: 6.00 Build 0)  -->
<svg version="1.1" id="Layer_1" xmlns="http://www.w3.org/2000/svg" xmlns:xlink="http://www.w3.org/1999/xlink" x="0px" y="0px"
	 viewBox="0 0 50 50" style="enable-background:new 0 0 50 50;" xml:space="preserve">
<style type="text/css">
	.st0{fill:#858786;}
	.st1{fill:#FEFEFE;}
</style>
<g>
	<path class="st0" d="M25,50C11.1,50,0,38.8,0,25C0,10.8,11.8-0.2,25.4,0C38.9,0.2,50,11.3,50,25.1C50,39,38.9,50,25,50z"/>
	<path class="st1" d="M14.6,22.3c-2.5-2.3-3-5-1.7-8.1c0.5,0.1,0.6,0.5,0.9,0.7c3,3.2,6.7,5,11,5.5c0.7,0.1,0.9-0.1,0.8-0.8
		c-0.2-2.6,0.9-4.7,3.2-5.9c2.3-1.3,4.7-1.1,6.8,0.6c0.6,0.5,1.1,0.5,1.8,0.3c0.9-0.3,1.8-0.7,2.8-1.2c-0.4,1.3-1.2,2.2-2.2,3.2
		c1.1,0.1,1.9-0.4,2.9-0.6c-0.6,1-1.3,1.8-2.1,2.4c-0.6,0.5-0.8,1-0.8,1.8c-0.2,8.3-5.8,15.3-13.8,16.9c-4.6,1-8.9,0.2-13-2.3
		c3.1,0.1,5.9-0.6,8.7-2.6c-2.7-0.4-4.6-1.8-5.6-4.3c0.8-0.1,1.5,0.2,2.1-0.2c-0.5-0.3-1-0.5-1.5-0.8c-1.6-1.1-2.6-2.6-2.8-4.6
		c-0.1-0.6,0.1-0.7,0.6-0.5C13.3,22.1,13.9,22.3,14.6,22.3z"/>
</g>
</svg>
