<?xml version="1.0" encoding="utf-8"?>
<!-- Generator: Adobe Illustrator 19.1.0, SVG Export Plug-In . SVG Version: 6.00 Build 0)  -->
<svg version="1.1" xmlns="http://www.w3.org/2000/svg" xmlns:xlink="http://www.w3.org/1999/xlink" x="0px" y="0px"
	 viewBox="0 0 250 210" style="enable-background:new 0 0 250 210;" xml:space="preserve">
<style type="text/css">
	.st0{fill:#231F20;}
	.st1{fill:#212121;}
	.st2{fill:#727373;stroke:#414042;stroke-width:2;stroke-miterlimit:10;}
	.st3{fill:#727373;}
	.st4{fill:#00A8D0;}
	.st5{fill:#F1592B;}
</style>
<g id="Layer_1">
</g>
<g id="Desktop">
</g>
<g id="Tablet_logo">
</g>
<g id="phone_logo">
</g>
<g id="favicon">
	<g>
		<g>
			<path class="st3" d="M178.3,140.3v-11c0-1.7-0.4-3-1.1-3.7c-0.7-0.8-1.8-1.2-3.3-1.2c-2,0-3.5,0.5-4.5,1.5c-0.9,1-1.4,2.7-1.4,5
				v9.4h-1.5v-17h1.3l0.3,2.3h0.1c1.1-1.8,3.1-2.7,5.9-2.7c3.9,0,5.8,2.1,5.8,6.2v11.1H178.3z"/>
			<path class="st3" d="M198.5,131.8c0,2.8-0.7,4.9-2,6.5c-1.3,1.6-3.2,2.3-5.6,2.3c-1.5,0-2.8-0.4-3.9-1.1c-1.1-0.7-2-1.8-2.6-3.1
				c-0.6-1.3-0.9-2.9-0.9-4.7c0-2.8,0.7-4.9,2-6.5s3.2-2.3,5.5-2.3c2.3,0,4.2,0.8,5.5,2.4C197.8,126.9,198.5,129.1,198.5,131.8z
				 M185.1,131.8c0,2.3,0.5,4.2,1.5,5.5c1,1.3,2.5,2,4.4,2s3.3-0.7,4.4-2c1-1.3,1.5-3.1,1.5-5.5c0-2.3-0.5-4.2-1.6-5.5
				c-1-1.3-2.5-1.9-4.4-1.9s-3.3,0.6-4.3,1.9C185.6,127.6,185.1,129.5,185.1,131.8z"/>
			<path class="st3" d="M208.3,123c0.7,0,1.5,0.1,2.3,0.2l-0.3,1.5c-0.7-0.2-1.4-0.3-2.2-0.3c-1.4,0-2.6,0.6-3.6,1.8
				c-0.9,1.2-1.4,2.8-1.4,4.7v9.4h-1.5v-17h1.3l0.2,3.1h0.1c0.7-1.2,1.4-2.1,2.2-2.6C206.2,123.3,207.2,123,208.3,123z"/>
			<path class="st3" d="M219.6,139.3c1,0,1.8-0.1,2.6-0.2v1.2c-0.8,0.2-1.6,0.4-2.6,0.4c-1.5,0-2.6-0.4-3.3-1.2
				c-0.7-0.8-1.1-2.1-1.1-3.8v-11h-2.5v-0.9l2.5-0.7l0.8-3.8h0.8v4.1h5v1.3h-5v10.8c0,1.3,0.2,2.3,0.7,2.9
				C217.9,139,218.6,139.3,219.6,139.3z"/>
			<path class="st3" d="M236.7,140.3v-11c0-1.7-0.4-3-1.1-3.7c-0.7-0.8-1.8-1.2-3.3-1.2c-2,0-3.5,0.5-4.5,1.5c-0.9,1-1.4,2.7-1.4,5
				v9.4h-1.5V116h1.5v7.7l-0.1,2.2h0.1c0.6-1,1.4-1.8,2.4-2.2c1-0.5,2.2-0.7,3.6-0.7c3.9,0,5.8,2.1,5.8,6.2v11.1H236.7z"/>
		</g>
		<g>
			<path class="st3" d="M181.5,172.8l-3.7-11.4c-0.2-0.8-0.5-1.9-0.9-3.4h-0.1l-0.3,1.2l-0.7,2.3l-3.8,11.3h-1.5l-4.9-17h1.7
				l2.7,9.8c0.6,2.4,1.1,4.2,1.2,5.4h0.1c0.6-2.4,1.1-4.1,1.3-4.9l3.5-10.4h1.4l3.3,10.3c0.8,2.4,1.2,4.1,1.4,4.9h0.1
				c0.1-0.7,0.5-2.5,1.2-5.4l2.6-9.8h1.6l-4.6,17H181.5z"/>
			<path class="st3" d="M198.5,173.1c-2.5,0-4.4-0.8-5.8-2.3c-1.4-1.5-2.1-3.7-2.1-6.4c0-2.7,0.7-4.9,2-6.5c1.3-1.6,3.1-2.4,5.4-2.4
				c2,0,3.6,0.7,4.7,2.1c1.2,1.4,1.7,3.3,1.7,5.7v1.2h-12.2c0,2.3,0.6,4.1,1.6,5.3c1.1,1.2,2.6,1.8,4.6,1.8c1,0,1.8-0.1,2.6-0.2
				c0.7-0.1,1.7-0.4,2.8-0.9v1.4c-1,0.4-1.8,0.7-2.7,0.9S199.5,173.1,198.5,173.1z M198.1,156.8c-1.6,0-2.9,0.5-3.9,1.6
				c-1,1.1-1.6,2.6-1.7,4.7h10.5c0-2-0.4-3.5-1.3-4.6C200.8,157.4,199.6,156.8,198.1,156.8z"/>
			<path class="st3" d="M220.4,168.3c0,1.5-0.6,2.7-1.7,3.5c-1.2,0.8-2.8,1.2-4.9,1.2c-2.3,0-4.1-0.3-5.4-1v-1.7
				c1.7,0.9,3.5,1.3,5.4,1.3c1.7,0,3-0.3,3.8-0.8c0.9-0.6,1.3-1.3,1.3-2.2c0-0.9-0.3-1.6-1-2.2c-0.7-0.6-1.8-1.2-3.4-1.7
				c-1.7-0.6-2.9-1.1-3.6-1.6c-0.7-0.4-1.2-0.9-1.6-1.5c-0.3-0.6-0.5-1.2-0.5-2c0-1.3,0.5-2.3,1.6-3c1.1-0.7,2.6-1.1,4.5-1.1
				c1.8,0,3.6,0.3,5.2,1l-0.6,1.4c-1.7-0.7-3.2-1-4.6-1c-1.4,0-2.5,0.2-3.3,0.7c-0.8,0.5-1.2,1.1-1.2,1.9c0,0.9,0.3,1.6,0.9,2.1
				c0.6,0.5,1.9,1.1,3.7,1.8c1.5,0.6,2.6,1,3.3,1.5c0.7,0.4,1.2,0.9,1.6,1.5C220.2,166.9,220.4,167.6,220.4,168.3z"/>
			<path class="st3" d="M230.5,171.7c1,0,1.8-0.1,2.6-0.2v1.2c-0.8,0.2-1.6,0.4-2.6,0.4c-1.5,0-2.6-0.4-3.3-1.2
				c-0.7-0.8-1.1-2.1-1.1-3.8v-11h-2.5v-0.9l2.5-0.7l0.8-3.8h0.8v4.1h5v1.3h-5v10.8c0,1.3,0.2,2.3,0.7,2.9
				C228.9,171.4,229.6,171.7,230.5,171.7z"/>
		</g>
		<g>
			<path class="st1" d="M51.2,86.2l-3.8-12.4h-19l-3.8,12.4H12.6l18.4-52.4h13.5l18.5,52.4H51.2z M44.7,64.5
				c-3.5-11.3-5.5-17.6-5.9-19.1c-0.4-1.5-0.8-2.6-0.9-3.5c-0.8,3-3,10.6-6.7,22.6H44.7z"/>
			<path class="st1" d="M96.8,45.6c1.5,0,2.7,0.1,3.7,0.3l-0.8,10.2c-0.9-0.2-2-0.4-3.2-0.4c-3.5,0-6.2,0.9-8.1,2.7
				s-2.9,4.3-2.9,7.5v20.3H74.5V46.3h8.2l1.6,6.7h0.5c1.2-2.2,2.9-4,5-5.4C92,46.3,94.3,45.6,96.8,45.6z"/>
			<path class="st1" d="M130.2,78.3c1.9,0,4.2-0.4,6.9-1.2v8.1c-2.7,1.2-6,1.8-10,1.8c-4.4,0-7.5-1.1-9.5-3.3c-2-2.2-3-5.5-3-9.9
				V54.5h-5.2v-4.6l6-3.6l3.1-8.4h7v8.5h11.2v8.2h-11.2v19.2c0,1.5,0.4,2.7,1.3,3.4C127.6,77.9,128.8,78.3,130.2,78.3z"/>
		</g>
		<g>
			<path class="st1" d="M31.2,120.8h14v17.3c-3.7,1.6-7.8,2.3-12.4,2.3c-6,0-10.6-1.7-13.8-5.1c-3.2-3.4-4.8-8.2-4.8-14.4
				c0-3.9,0.8-7.3,2.4-10.3c1.6-3,3.9-5.3,6.8-6.9c3-1.6,6.3-2.4,10.2-2.4c4.1,0,7.9,0.8,11.2,2.3l-1.1,2.4
				c-3.3-1.5-6.7-2.3-10.2-2.3c-5,0-9,1.5-11.9,4.6c-2.9,3.1-4.4,7.3-4.4,12.5c0,5.7,1.4,10,4.2,12.9c2.8,2.9,6.9,4.3,12.3,4.3
				c3.5,0,6.5-0.5,8.9-1.5v-13.4H31.2V120.8z"/>
			<path class="st1" d="M54,111.7V130c0,2.8,0.6,4.9,1.8,6.2c1.2,1.3,3.1,1.9,5.6,1.9c3.4,0,5.8-0.8,7.4-2.5
				c1.6-1.7,2.4-4.5,2.4-8.3v-15.6h2.5V140h-2.2l-0.5-3.9h-0.2c-1.8,2.9-5.1,4.4-9.8,4.4c-6.4,0-9.6-3.4-9.6-10.3v-18.5H54z"/>
			<path class="st1" d="M80.5,103.9c0-1.7,0.5-2.5,1.6-2.5c0.5,0,1,0.2,1.3,0.6c0.3,0.4,0.5,1,0.5,1.8c0,0.8-0.2,1.4-0.5,1.8
				c-0.3,0.5-0.7,0.7-1.3,0.7C81.1,106.4,80.5,105.6,80.5,103.9z M83.5,140h-2.6v-28.3h2.6V140z"/>
			<path class="st1" d="M101,111.2c2,0,3.8,0.4,5.3,1.1c1.5,0.7,2.8,2,4,3.8h0.2c-0.1-2.2-0.2-4.3-0.2-6.4V99.5h2.5V140h-1.7
				l-0.7-4.3h-0.2c-2.1,3.2-5.2,4.8-9.3,4.8c-3.9,0-6.9-1.2-8.9-3.6s-3.1-6-3.1-10.6c0-4.9,1-8.6,3.1-11.2
				C94.1,112.5,97.1,111.2,101,111.2z M101,113.5c-3.1,0-5.4,1.1-7,3.2c-1.6,2.2-2.3,5.3-2.3,9.4c0,8,3.1,12,9.3,12
				c3.2,0,5.5-0.9,7-2.8c1.5-1.9,2.2-4.9,2.2-9.2v-0.4c0-4.4-0.7-7.5-2.2-9.4S104.3,113.5,101,113.5z"/>
			<path class="st1" d="M131.5,140.5c-4.1,0-7.3-1.3-9.6-3.8c-2.3-2.5-3.4-6.1-3.4-10.6c0-4.5,1.1-8.1,3.3-10.8s5.2-4.1,9-4.1
				c3.3,0,6,1.2,7.9,3.5c1.9,2.3,2.9,5.5,2.9,9.5v2.1h-20.4c0,3.9,0.9,6.8,2.7,8.9s4.3,3.1,7.6,3.1c1.6,0,3-0.1,4.3-0.3
				c1.2-0.2,2.8-0.7,4.6-1.5v2.3c-1.6,0.7-3.1,1.2-4.4,1.4C134.6,140.4,133.1,140.5,131.5,140.5z M130.7,113.5
				c-2.7,0-4.9,0.9-6.6,2.7s-2.6,4.4-2.9,7.8h17.5c0-3.3-0.7-5.8-2.1-7.7C135.2,114.4,133.2,113.5,130.7,113.5z"/>
		</g>
		<line class="st2" x1="154.2" y1="0.4" x2="154.2" y2="208.9"/>
		<circle class="st3" cx="189.7" cy="20.6" r="9.2"/>
		<circle class="st4" cx="189.7" cy="59.3" r="9.2"/>
		<circle class="st5" cx="189.7" cy="99.9" r="9.2"/>
	</g>
</g>
</svg>
