<?xml version="1.0" encoding="utf-8"?>
<!-- Generator: Adobe Illustrator 19.1.0, SVG Export Plug-In . SVG Version: 6.00 Build 0)  -->
<svg version="1.1" id="Layer_1" xmlns="http://www.w3.org/2000/svg" xmlns:xlink="http://www.w3.org/1999/xlink" x="0px" y="0px"
	 viewBox="-205 322 200 150" style="enable-background:new -205 322 200 150;" xml:space="preserve">
<metadata><?xpacket begin="﻿" id="W5M0MpCehiHzreSzNTczkc9d"?>
<x:xmpmeta xmlns:x="adobe:ns:meta/" x:xmptk="Adobe XMP Core 5.6-c067 79.157747, 2015/03/30-23:40:42        ">
   <rdf:RDF xmlns:rdf="http://www.w3.org/1999/02/22-rdf-syntax-ns#">
      <rdf:Description rdf:about=""/>
   </rdf:RDF>
</x:xmpmeta>
                                                                                                    
                                                                                                    
                                                                                                    
                                                                                                    
                                                                                                    
                                                                                                    
                                                                                                    
                                                                                                    
                                                                                                    
                                                                                                    
                                                                                                    
                                                                                                    
                                                                                                    
                                                                                                    
                                                                                                    
                                                                                                    
                                                                                                    
                                                                                                    
                                                                                                    
                                                                                                    
                           
<?xpacket end="w"?></metadata>
<style type="text/css">
	.st0{fill:none;}
	.st1{enable-background:new    ;}
	.st2{fill:#727373;}
	.st3{fill:#212121;}
	.st4{fill:none;stroke:#414042;stroke-width:2;stroke-miterlimit:10;}
	.st5{fill:#00A8D0;}
	.st6{fill:#F1592B;}
</style>
<g id="Layer_1_1_">
</g>
<g id="Desktop">
</g>
<g id="Tablet_logo">
</g>
<g id="phone_logo">
</g>
<g id="favicon">
	<g>
		<rect x="-83.4" y="438" class="st0" width="50.7" height="27.6"/>
		<g class="st1">
			<path class="st2" d="M-68.7,462.3v-11c0-1.7-0.4-3-1.1-3.7c-0.7-0.8-1.8-1.2-3.3-1.2c-2,0-3.5,0.5-4.5,1.5c-0.9,1-1.4,2.7-1.4,5
				v9.4h-1.5v-17h1.3l0.3,2.3h0.1c1.1-1.8,3.1-2.7,5.9-2.7c3.9,0,5.8,2.1,5.8,6.2v11.1H-68.7z"/>
			<path class="st2" d="M-48.1,462.3l-3.7-11.4c-0.2-0.8-0.5-1.9-0.9-3.4h-0.1l-0.3,1.2l-0.7,2.3l-3.8,11.3h-1.5l-4.9-17h1.7
				l2.7,9.8c0.6,2.4,1.1,4.2,1.2,5.4h0.1c0.6-2.4,1.1-4.1,1.3-4.9l3.5-10.4h1.4l3.3,10.3c0.8,2.4,1.2,4.1,1.4,4.9h0.1
				c0.1-0.7,0.5-2.5,1.2-5.4l2.6-9.8h1.6l-4.6,17H-48.1z"/>
		</g>
		<rect x="-200" y="328.5" class="st0" width="95.2" height="50.8"/>
		<g class="st1">
			<path class="st3" d="M-171.1,370.1l-2.8-9.3h-14.3l-2.8,9.3h-8.9l13.8-39.3h10.1l13.9,39.3H-171.1z M-175.9,353.8
				c-2.6-8.4-4.1-13.2-4.4-14.3c-0.3-1.1-0.6-2-0.7-2.6c-0.6,2.3-2.3,7.9-5.1,16.9H-175.9z"/>
			<path class="st3" d="M-137.2,339.6c1.1,0,2,0.1,2.8,0.2l-0.6,7.7c-0.7-0.2-1.5-0.3-2.4-0.3c-2.6,0-4.6,0.7-6.1,2
				c-1.5,1.3-2.2,3.2-2.2,5.6v15.2h-8.2v-29.9h6.2l1.2,5h0.4c0.9-1.7,2.2-3,3.8-4.1C-140.8,340.1-139.1,339.6-137.2,339.6z"/>
			<path class="st3" d="M-112.5,364.2c1.4,0,3.1-0.3,5.1-0.9v6.1c-2,0.9-4.5,1.4-7.5,1.4c-3.3,0-5.6-0.8-7.1-2.5
				c-1.5-1.7-2.2-4.1-2.2-7.4v-14.4h-3.9v-3.5l4.5-2.7l2.4-6.3h5.2v6.4h8.4v6.1h-8.4v14.4c0,1.2,0.3,2,1,2.6
				C-114.4,363.9-113.5,364.2-112.5,364.2z"/>
		</g>
		<rect x="-201.3" y="380.1" class="st0" width="102.5" height="36.5"/>
		<g class="st1">
			<path class="st3" d="M-186.1,396.1h10.5v13c-2.8,1.2-5.9,1.8-9.3,1.8c-4.5,0-7.9-1.3-10.3-3.8c-2.4-2.5-3.6-6.1-3.6-10.8
				c0-2.9,0.6-5.5,1.8-7.7c1.2-2.2,2.9-4,5.1-5.2c2.2-1.2,4.8-1.8,7.6-1.8c3.1,0,5.9,0.6,8.4,1.7l-0.8,1.8c-2.5-1.1-5-1.7-7.7-1.7
				c-3.8,0-6.7,1.2-8.9,3.5c-2.2,2.3-3.3,5.5-3.3,9.4c0,4.3,1,7.5,3.1,9.7c2.1,2.2,5.2,3.2,9.2,3.2c2.6,0,4.9-0.4,6.7-1.1v-10h-8.5
				V396.1z"/>
			<path class="st3" d="M-168.2,389.2V403c0,2.1,0.4,3.7,1.3,4.7c0.9,1,2.3,1.5,4.2,1.5c2.5,0,4.4-0.6,5.6-1.9
				c1.2-1.3,1.8-3.3,1.8-6.2v-11.7h1.9v21.2h-1.6l-0.4-2.9h-0.1c-1.4,2.2-3.8,3.3-7.4,3.3c-4.8,0-7.2-2.6-7.2-7.7v-13.8H-168.2z"/>
			<path class="st3" d="M-147.6,383.3c0-1.2,0.4-1.9,1.2-1.9c0.4,0,0.7,0.2,0.9,0.5s0.3,0.8,0.3,1.4c0,0.6-0.1,1-0.3,1.4
				c-0.2,0.3-0.5,0.5-0.9,0.5C-147.2,385.2-147.6,384.6-147.6,383.3z M-145.4,410.4h-1.9v-21.2h1.9V410.4z"/>
			<path class="st3" d="M-131.6,388.8c1.5,0,2.9,0.3,4,0.8c1.1,0.6,2.1,1.5,3,2.9h0.1c-0.1-1.6-0.1-3.2-0.1-4.8v-7.6h1.9v30.3h-1.3
				l-0.5-3.2h-0.2c-1.6,2.4-3.9,3.6-6.9,3.6c-2.9,0-5.2-0.9-6.7-2.7c-1.5-1.8-2.3-4.5-2.3-8c0-3.7,0.8-6.5,2.3-8.4
				C-136.7,389.8-134.5,388.8-131.6,388.8z M-131.6,390.6c-2.3,0-4.1,0.8-5.2,2.4c-1.2,1.6-1.7,4-1.7,7.1c0,6,2.3,9,7,9
				c2.4,0,4.1-0.7,5.3-2.1c1.1-1.4,1.7-3.7,1.7-6.9v-0.3c0-3.3-0.5-5.6-1.6-7.1S-129.1,390.6-131.6,390.6z"/>
			<path class="st3" d="M-108,410.8c-3.1,0-5.5-0.9-7.2-2.8c-1.7-1.9-2.6-4.6-2.6-8c0-3.4,0.8-6.1,2.5-8.1c1.7-2,3.9-3.1,6.7-3.1
				c2.5,0,4.5,0.9,5.9,2.6c1.4,1.7,2.2,4.1,2.2,7.1v1.6h-15.3c0,2.9,0.7,5.1,2,6.7s3.2,2.3,5.7,2.3c1.2,0,2.3-0.1,3.2-0.3
				c0.9-0.2,2.1-0.5,3.5-1.1v1.8c-1.2,0.5-2.3,0.9-3.3,1.1C-105.6,410.7-106.8,410.8-108,410.8z M-108.5,390.5c-2,0-3.7,0.7-4.9,2
				c-1.2,1.3-2,3.3-2.2,5.8h13.1c0-2.5-0.5-4.4-1.6-5.8C-105.2,391.2-106.7,390.5-108.5,390.5z"/>
		</g>
		<line class="st4" x1="-8.7" y1="425.9" x2="-199" y2="425.9"/>
		<circle class="st2" cx="-109.1" cy="453.9" r="9.2"/>
		<circle class="st5" cx="-147.9" cy="453.9" r="9.2"/>
		<circle class="st6" cx="-188.5" cy="453.9" r="9.2"/>
	</g>
</g>
</svg>
