<?xml version="1.0" encoding="utf-8"?>
<!-- Generator: Adobe Illustrator 19.1.0, SVG Export Plug-In . SVG Version: 6.00 Build 0)  -->
<svg version="1.1" xmlns="http://www.w3.org/2000/svg" xmlns:xlink="http://www.w3.org/1999/xlink" x="0px" y="0px"
	 viewBox="0 0 80 70" style="enable-background:new 0 0 80 70;" xml:space="preserve">
<style type="text/css">
	.st0{fill:#231F20;}
	.st1{fill:#212121;}
	.st2{fill:#727373;stroke:#414042;stroke-width:2;stroke-miterlimit:10;}
	.st3{fill:#727373;}
	.st4{fill:#00A8D0;}
	.st5{fill:#F1592B;}
</style>
<g id="Layer_1">
</g>
<g id="Desktop">
</g>
<g id="Tablet_logo">
</g>
<g id="phone_logo">
</g>
<g id="favicon">
	<g>
		<g>
			<circle class="st3" cx="66.7" cy="59.9" r="6.7"/>
			<circle class="st4" cx="40" cy="59.9" r="6.7"/>
			<circle class="st5" cx="13.3" cy="59.9" r="6.7"/>
		</g>
		<g>
			<path class="st1" d="M28.6,36.8l-2.4-7.9H14.1l-2.4,7.9H4.1L15.8,3.4h8.6l11.8,33.4H28.6z M24.5,23c-2.2-7.2-3.5-11.2-3.8-12.2
				c-0.3-0.9-0.5-1.7-0.6-2.2c-0.5,1.9-1.9,6.7-4.3,14.4H24.5z"/>
			<path class="st1" d="M53,10.9c0.9,0,1.7,0.1,2.3,0.2l-0.5,6.5c-0.6-0.2-1.2-0.2-2-0.2c-2.2,0-3.9,0.6-5.2,1.7s-1.9,2.7-1.9,4.8
				v12.9h-6.9V11.4h5.3l1,4.3h0.3c0.8-1.4,1.9-2.6,3.2-3.4C50,11.4,51.5,10.9,53,10.9z"/>
			<path class="st1" d="M71.6,31.8c1.2,0,2.7-0.3,4.4-0.8v5.2c-1.7,0.8-3.9,1.2-6.4,1.2c-2.8,0-4.8-0.7-6.1-2.1s-1.9-3.5-1.9-6.3
				V16.6h-3.3v-2.9l3.8-2.3l2-5.4h4.4v5.4h7.1v5.2h-7.1v12.3c0,1,0.3,1.7,0.8,2.2C69.9,31.5,70.6,31.8,71.6,31.8z"/>
		</g>
	</g>
</g>
</svg>
